<!-- MBF q : symbola-mbf.sfd : fill: #c6b305; background: #2c3008; -->
<svg 
    id="svg-logo-maskable"
    viewBox="0 0 560 560"
    style="background-color:#2c3008;" 
    xmlns="http://www.w3.org/2000/svg">
    <path fill="#c6b305" d="M426.07,142.22a66.57,66.57,0,0,0-22.76,4.56q-14,5.85-14,16.25V341.52q0,35.1-14.31,89.73Q362.36,475.79,349.35,520h-8.13Q304.8,443.61,293.1,326.24q-61.11,38-92.33,67-58.85-31.86-58.84-64V163.68q0-13.65,41.29-32.51l55.26-22.11Q272,93.46,295.7,72q48.45,44.86,126.15,63.4A8.72,8.72,0,0,1,426.07,142.22ZM294.4,316.81V162.38Q260.92,150,237.18,134.1V296q0,9.75,9.43,22.11t18.86,12.35q3.25,0,14-5.85Q293.43,317.13,294.4,316.81Z"/>
</svg>
