<!-- MBF q : symbola-mbf.sfd : fill: #c6b305; background: #2c3008; -->
<svg 
    id="svg-logo" 
    viewBox="0 0 460 460" 
    style="background-color:#2c3008;" 
    xmlns="http://www.w3.org/2000/svg">
    <path fill="#c6b305" d="M376.07,76.22a66.68,66.68,0,0,0-22.76,4.56q-14,5.85-14,16.25V275.52q0,35.1-14.31,89.73Q312.36,409.79,299.35,454h-8.13Q254.8,377.61,243.1,260.24q-61.11,38-92.33,67-58.84-31.86-58.84-64V97.68q0-13.65,41.29-32.51l55.26-22.11Q222,27.46,245.7,6q48.45,44.86,126.15,63.4A8.73,8.73,0,0,1,376.07,76.22ZM244.4,250.81V96.38Q210.92,84,187.18,68.1V230q0,9.75,9.43,22.11t18.86,12.35q3.25,0,14-5.85Q243.44,251.13,244.4,250.81Z"/>
</svg>
