<!-- MBF q : symbola-mbf.sfd : fill: #c6b305; background: transparent; -->
<svg id="svg-token-q" viewBox="0 0 460 460" xmlns="http://www.w3.org/2000/svg">
    <title>favicon</title>
    <path fill="#c6b305" d="M372.07,76.22a66.68,66.68,0,0,0-22.76,4.56q-14,5.85-14,16.25V275.52q0,35.1-14.31,89.73Q308.36,409.79,295.35,454h-8.13Q250.8,377.61,239.1,260.24q-61.11,38-92.33,67-58.84-31.86-58.84-64V97.68q0-13.65,41.29-32.51l55.26-22.11Q218,27.46,241.7,6q48.45,44.86,126.15,63.4A8.73,8.73,0,0,1,372.07,76.22ZM240.4,250.81V96.38Q206.92,84,183.18,68.1V230q0,9.75,9.43,22.11t18.86,12.35q3.25,0,14-5.85Q239.44,251.13,240.4,250.81Z"/>
</svg>
