<svg version="1.1" xmlns="http://www.w3.org/2000/svg" 
	viewBox="0 0 1369.5 359.5">
	<g class="uqrate-banner">
		<g fill="#330">
			<path d="M118.5,226c-6.5,9-15,16-25,21s-20,7.5-30.5,7.5c-22.5,0-38.5-6-48.5-17.5C5,225,0,204.5,0,175.5V64h67.5
				v104.5c0,14,1.5,23,4,27.5s7.5,6.5,15,6.5s14-4,20-12s9-18,9-29V64H184v187h-63l-1.5-25L118.5,226L118.5,226z"/>
			<path fill="#990" d="M466,56.5c-6.5,0-12.5,1-18.5,3.5c-7.5,3-11,7.5-11,13v143c0,18.5-4,42.5-11.5,72c-6.5,24-13.5,47.5-20.5,71.5
				H398c-19.5-41-32.5-93-39-156C326.5,224,301.5,242,285,257c-31.5-17-47-34-47-51V73.5c0-7,11-16,33-26c15-6,29.5-11.5,44.5-17.5
				c18-8.5,33.5-18.5,46-30c25.5,24,59,41,100.5,51C464.5,52,465.5,54,466,56.5z M360.5,196V72.5C342.5,66,327,58,314.5,50v129.5
				c0,5.5,2.5,11,7.5,18s10,10,15,10c1.5,0,5.5-1.5,11-4.5C355.5,198.5,359.5,196.5,360.5,196z"/>
			<path d="M646,60.5v54c-27,0-47,5-61,15c-13.5,10-20.5,24-20.5,42.5v79h-70V64H559l0.5,36h0.5
				C581,73.5,609.5,60.5,646,60.5z"/>
			<path d="M767,128.5h11c0-8-1.5-14-4.5-17s-9-4.5-17-4.5c-25,0-50,5.5-74,16l-9-47c26.5-11,55-16,86.5-16
				c31,0,53.5,6,66.5,17.5s20,31,20,58v65c0,17.5,2,34,5.5,50.5h-65c-1.5-8-2.5-16.5-3.5-25H783c-6.5,8.5-15,15.5-25,21
				c-10.5,5.5-21,8-31.5,8c-18.5,0-33.5-5-44.5-15.5c-11-10-16.5-24.5-16.5-42.5c0-20.5,9-37,26.5-49.5C708.5,135,734,128.5,767,128.5
				z M725.5,190c0,11,6,16,18,16c10.5,0,18.5-3,25-8.5c6-6,9.5-13.5,9.5-24v-5h-11c-13.5,0-24,2-31,6C729,178,725.5,183.5,725.5,190z"
				/>
			<path d="M981.5,254.5c-24,0-41.5-5.5-53-16.5S911,209.5,911,186v-68h-38V71h38V2.5h70V71h58v47h-58v57.5
				c0,11.5,1.5,19,4,23s7.5,6,14.5,6c10.5,0,21.5-2,32.5-5.5l7,48.5C1021.5,252.5,1002.5,254.5,981.5,254.5z"/>
			<path d="M1136,179c4,19,18,29,41,29c18,0,35-4,51.5-12.5l14.5,45c-22,9.5-46,14.5-72,14.5c-31,0-56-9-74.5-26.5
				s-28-41-28-71s8.5-53.5,25.5-71s40.5-26,69.5-26c30,0,53.5,8.5,70,25.5c17,17,25,41,25,72c0,6.5-0.5,13.5-2,21.5H1136V179z
				M1135.5,139.5h61c0-23-10-34-30.5-34C1147,105.5,1137,116.5,1135.5,139.5z"/>
			<g fill="#990" opacity="0.3">
				<path d="M1293,251v-50.5h53V251H1293z"/>
				<path d="M1297.5,171.5c-5-5-7.5-12-7.5-21.5c0-9,2.5-16.5,7.5-21.5s12-7.5,21-7.5s15.5,2.5,21,7.5c5,5,7.5,12,7.5,21.5
					c0,9-2.5,16.5-7.5,21.5s-12,7.5-21,7.5S1302.5,176.5,1297.5,171.5z M1329,157c2-1.5,3.5-4,3.5-7s-1-5.5-3.5-7c-2-1.5-6-2.5-11-2.5
					s-8.5,1-11,2.5c-2,1.5-3.5,4-3.5,7s1,5.5,3.5,7c2,1.5,6,2.5,11,2.5S1327,158.5,1329,157z"/>
				<path d="M1290,67.5h15.5c0,8,1.5,14,4.5,17.5c3,4,7,6,12.5,6h23v20.5H1291v-19h10.5l0,0C1294,86.5,1290,78,1290,67.5z"
					/>
				<path d="M1337,24.5L1337,24.5c5,4,7.5,9.5,7.5,16c0,6-2.5,11.5-7.5,15.5s-11.5,6-20,6s-15.5-2-20-6s-7-9-7-15.5
					c0-6,3-11.5,8.5-16l0,0L1291,24V5.5h48.5c10,0,17.5,3,22.5,8.5s7.5,13.5,7.5,24.5c0,6.5-1,13-3,19l-14-3c2-5,3-10,3-14.5
					c0-5-1-8.5-3.5-11c-2.5-2-6.5-3.5-12.5-3.5h-2.5V24.5z M1317.5,42.5c4,0,7-1,9.5-2.5c2-1.5,3.5-4,3.5-6.5s-1-5-3-6.5s-5-2.5-9-2.5
					h-1.5c-4,0-7,1-9,2.5s-3,4-3,6.5c0,3,1,5,3,6.5C1310,42,1313,42.5,1317.5,42.5z"/>
			</g>
		</g>
	</g>
</svg>
